<svg width="510" height="279" viewBox="0 0 510 279" fill="none" xmlns="http://www.w3.org/2000/svg">
<path d="M219.5 10.5H31.5V107L232.5 98" stroke="oklch(44.6% 0.03 256.802)" stroke-width="22"/>
<path d="M0 160.5H241.5" stroke="oklch(44.6% 0.03 256.802)" stroke-width="22"/>
<path d="M301.5 0V87.5L487 79.5V0" stroke="oklch(44.6% 0.03 256.802)" stroke-width="22"/>
<path d="M269 117.5H509.5" stroke="oklch(44.6% 0.03 256.802)" stroke-width="22"/>
<path d="M389 168.5V120" stroke="oklch(44.6% 0.03 256.802)" stroke-width="22"/>
<path d="M280.5 172.5H480.5V218H295V269L487 266.5" stroke="oklch(44.6% 0.03 256.802)" stroke-width="22"/>
<path d="M305 37.5L486.5 30.5" stroke="oklch(44.6% 0.03 256.802)" stroke-width="22"/>
<path d="M121 208.5C135.062 208.5 146 219.497 146 232.5C146 245.503 135.062 256.5 121 256.5C106.938 256.5 96 245.503 96 232.5C96 219.497 106.938 208.5 121 208.5Z" stroke="oklch(44.6% 0.03 256.802)" stroke-width="22"/>
</svg>
