<svg width="558" height="985" viewBox="0 0 558 985" fill="none" xmlns="http://www.w3.org/2000/svg">
<path fill-rule="evenodd" clip-rule="evenodd" d="M220.422 342.026C220.991 342.068 221.6 342.157 222.167 342.256C223.327 342.458 224.792 342.787 226.433 343.194C229.742 344.013 234.072 345.237 238.712 346.703C247.283 349.409 257.467 353.105 264.284 356.782L265.601 357.516L265.624 357.532L265.65 357.547C272.814 361.79 283.053 371.597 293.338 382.665C303.799 393.921 314.846 407.078 323.728 418.588L323.751 418.615L323.77 418.642C340.668 441.109 410.763 539.377 425.136 560.558L427.233 563.723L427.244 563.738C437.529 580.138 453.614 613.944 461.521 635.203L462.991 639.278L463.002 639.305C466.345 649.105 470.432 668.834 471.611 681.022L471.807 683.356V683.379C472.489 693.804 471.308 711 469.155 727.668C467.008 744.286 463.787 761.224 460.121 770.981L459.417 772.741C455.679 781.68 447.842 795.507 439.619 808.531C430.859 822.405 421.135 836.193 414.739 842.779L414.713 842.806C407.347 850.295 392.706 861.577 383.562 867.33L383.535 867.346C374.933 872.691 354.709 882.296 345.221 886.019L345.206 886.023C334.254 890.282 313.018 895.76 301.626 896.757H301.592C294.047 897.37 277.999 896.773 262.119 895.547C246.25 894.323 229.624 892.405 220.988 890.163L220.95 890.152C212.542 887.902 197.361 880.923 183.03 873.449C168.665 865.957 154.172 857.458 147.219 851.844L147.2 851.825C137.969 844.297 122.928 827.509 115.421 817.198L115.406 817.179L115.391 817.156C108.879 808.021 99.477 789.576 96.1973 780.387L96.182 780.345C93.2261 771.854 89.9567 754.837 87.4387 737.962C84.9096 721.012 83.0154 703.374 83 693.478L83.0038 693.439C83.0652 682.255 85.8259 660.854 88.2039 650.731L88.2116 650.704C93.2031 629.977 110.26 591.686 123.334 569.646L123.353 569.612L123.373 569.581C135.225 550.216 156.213 519.592 176.678 489.992C197.222 460.279 217.236 431.601 227.352 415.864L227.371 415.833C229.931 411.904 235.022 404.135 239.505 397.282C241.749 393.852 243.841 390.648 245.393 388.263C246.17 387.07 246.808 386.088 247.261 385.385C247.479 385.046 247.635 384.824 247.724 384.685C247.743 384.629 247.775 384.541 247.808 384.413C247.877 384.145 247.947 383.78 248.007 383.327C248.126 382.414 248.177 381.293 248.133 380.105C248.04 377.578 247.555 375.641 247.123 374.816C246.136 373.176 243.786 370.619 240.522 367.879C237.318 365.188 233.743 362.741 230.83 361.24C225.615 358.609 221.714 356.541 219.202 354.991C218.018 354.261 216.766 353.421 215.842 352.511C215.451 352.126 214.539 351.184 214.059 349.756C213.785 348.941 213.59 347.784 213.906 346.473C214.231 345.121 214.981 344.098 215.769 343.412L216.332 342.922L217.009 342.597C218.075 342.084 219.055 342.026 219.328 342.011C219.756 341.987 220.143 342.006 220.422 342.026ZM288.808 574.448C286.795 574.448 285.546 574.697 284.469 575.317C283.353 575.959 282.19 577.132 280.642 579.454C279.743 580.804 279.194 582.6 278.836 584.742C278.677 586.199 278.497 587.883 278.32 589.678C278.304 589.939 278.288 590.204 278.274 590.47C278.039 594.942 278.036 600.151 276.996 604.311L276.954 604.3C276.923 604.641 276.894 604.973 276.866 605.294C275.401 619.48 272.737 634.654 260.026 649.158C257.487 652.055 253.475 656.161 248.428 661.319C243.434 666.423 237.532 672.449 231.392 679.036C219.157 692.164 205.73 707.763 196.362 723.145L196.346 723.172L196.331 723.195C193.488 727.98 191.155 734.542 189.581 741.103C188.001 747.691 187.069 754.775 187.301 760.722V760.783C187.595 766.642 189.158 774.457 191.207 781.875C193.26 789.304 195.94 796.845 198.673 802.118L198.7 802.168C201.759 807.931 207.047 814.133 212.811 819.479C218.597 824.845 225.289 829.747 231.461 832.677L231.511 832.7C237.511 835.477 243.79 837.793 249.419 839.435C254.935 841.043 260.225 842.12 264.124 842.174L267.376 842.216C268.195 842.506 269.094 842.613 270.013 842.481C273.046 842.041 275.152 839.224 274.715 836.19C274.457 834.399 273.148 826.835 272.305 817.497C271.452 808.056 271.155 797.507 272.695 789.858C272.808 789.34 272.96 788.778 273.15 788.182C273.335 789.741 273.572 791.398 273.831 792.972C274.411 796.492 275.214 800.403 276.028 802.753L276.039 802.788L276.054 802.826C277.818 807.703 282.489 815.727 287.201 822.747C289.609 826.335 292.144 829.836 294.494 832.727C296.71 835.453 299.164 838.153 301.401 839.645C303.568 841.089 306.375 840.801 308.216 839.121C312.336 838.373 318.638 836.622 323.162 834.716L323.204 834.697C328.284 832.508 335.934 827.652 342.902 822.288C349.758 817.01 356.923 810.507 360.316 804.77L360.343 804.728L360.366 804.685C361.766 802.218 363.536 798.029 365.019 794.136C366.503 790.239 367.93 786.027 368.509 783.433L368.52 783.372L368.535 783.314C369.493 778.525 369.367 770.956 368.796 763.818C368.212 756.541 367.088 748.859 365.692 743.594L365.688 743.571L365.118 741.532C362.055 730.916 355.804 714.134 348.194 704.177L348.179 704.158L346.403 702.015C343.917 699.094 339.514 694.065 335.15 689.039C329.869 682.957 324.587 676.81 321.926 673.434L320.954 672.164C317.692 667.657 314.891 661.98 312.08 655.457C310.679 652.205 309.314 648.83 307.887 645.336C306.503 641.947 305.061 638.463 303.536 635C303.005 633.303 302.149 631.242 301.274 629.207C300.258 626.84 299.092 624.187 297.911 621.213C296.107 616.668 294.348 611.559 293.216 606.209L293.094 606.24C292.571 603.988 291.721 601.926 290.756 599.903C289.846 597.997 288.663 595.803 287.794 593.861C285.932 589.7 284.755 585.19 286.99 579.599C287.819 577.528 288.557 575.875 289.409 574.452C289.231 574.451 289.032 574.448 288.808 574.448Z" fill="#4CEDFF"/>
<path d="M279 86.1518C281.169 86.1296 283.242 87.3847 284.16 89.4976C285.931 93.5796 288.752 99.9887 291.717 106.169C294.734 112.457 297.681 118.036 299.738 120.85C301.046 122.467 305.144 127.504 309.807 132.667C312.217 135.335 314.731 137.982 317.054 140.186C319.433 142.443 321.313 143.943 322.528 144.634L323.796 145.296C330.552 148.674 343.238 152.993 355.419 156.788C361.799 158.777 367.871 160.57 372.582 161.945C374.87 162.613 376.904 163.203 378.496 163.668L381.76 164.648L381.802 164.663L381.848 164.678C383.256 165.178 386.104 166.595 386.735 170.026C387.313 173.178 385.487 175.463 384.644 176.362C382.712 178.421 379.582 180.028 376.528 181.193L376.524 181.189C374.603 181.925 370.275 183.633 366.274 185.388C364.26 186.272 362.412 187.13 361.022 187.861C360.766 187.996 360.535 188.123 360.333 188.236C360.362 188.255 360.392 188.278 360.425 188.298C360.951 188.625 361.688 189.037 362.658 189.53C364.596 190.517 367.202 191.703 370.349 193.052C376.634 195.746 384.765 198.956 393.4 202.324C410.452 208.975 429.738 216.336 439.276 221.17L439.302 221.185L441.44 222.318C451.66 227.902 465.126 237.471 473.825 245.999L475.614 247.81L475.633 247.833C484.182 256.881 493.018 268.28 497.297 276.241L498.09 277.788L498.105 277.815L498.117 277.841C499.548 280.857 501.092 286.151 502.625 292.201C504.203 298.429 505.895 305.992 507.554 313.887C510.045 325.736 512.487 338.444 514.392 348.731L516.1 358.09L516.115 358.198C525.474 416.844 543.117 551.333 551.224 615.054L554.062 637.605L554.07 637.647L554.073 637.689C555.616 651.998 556.926 669.368 557.571 685.238C558.21 700.973 558.218 715.673 557.027 724.415L557.023 724.442C555.731 733.572 551.311 748.276 546.149 762.762C540.952 777.341 534.791 792.287 529.778 802.004L529.763 802.031C524.723 811.669 515.242 824.62 505.291 836.825C495.287 849.093 484.488 860.991 476.583 868.56L476.567 868.579C467.132 877.53 451.744 890.261 441.26 897.347L441.252 897.351C430.252 904.769 409.452 916.556 398.697 920.431L398.667 920.442L398.632 920.458C397.339 920.905 393.66 922.004 390.033 923.091C386.27 924.22 382.416 925.379 380.488 926.012C379.512 926.357 377.288 927.245 375.279 928.256C374.494 928.65 373.846 929.028 373.352 929.339C373.216 930.812 373.319 932.409 373.639 933.837C374.12 935.975 374.807 936.573 374.67 936.475C376.961 938.107 380.301 941.3 383.74 944.793C387.307 948.416 391.333 952.726 395.089 956.863C398.847 961.002 402.369 965.006 404.937 968.022C406.214 969.523 407.291 970.82 408.047 971.781C408.413 972.246 408.768 972.72 409.047 973.129C409.167 973.306 409.39 973.638 409.591 974.032C409.674 974.196 409.902 974.655 410.058 975.269C410.135 975.572 410.271 976.191 410.227 976.976C410.182 977.766 409.921 979.213 408.717 980.49L408.53 980.689L408.323 980.869C407.514 981.574 406.695 981.863 406.523 981.926C406.212 982.039 405.945 982.105 405.795 982.14C405.487 982.212 405.202 982.256 405.017 982.282C404.622 982.336 404.162 982.376 403.707 982.412C402.772 982.485 401.493 982.557 399.957 982.626C396.867 982.766 392.524 982.909 387.329 983.051C376.925 983.337 362.975 983.627 348.486 983.894C320.163 984.415 289.71 984.845 279.468 984.988C279.385 984.991 279.302 985.001 279.219 985C279.146 984.999 279.072 984.997 278.997 984.996C278.924 984.997 278.852 984.999 278.782 985C278.697 985.001 278.613 984.991 278.529 984.988C268.268 984.845 237.819 984.414 209.503 983.894C195.016 983.627 181.07 983.337 170.668 983.051C165.473 982.909 161.133 982.766 158.043 982.626C156.508 982.557 155.229 982.485 154.293 982.412C153.838 982.376 153.379 982.336 152.983 982.282C152.798 982.256 152.512 982.212 152.202 982.14C152.052 982.105 151.788 982.038 151.478 981.926C151.306 981.863 150.488 981.575 149.678 980.869L149.536 980.743L149.402 980.609C148.182 979.39 147.858 977.972 147.786 977.141C147.716 976.334 147.838 975.692 147.912 975.372C148.062 974.733 148.294 974.254 148.379 974.082C148.582 973.674 148.81 973.328 148.931 973.148C149.211 972.732 149.574 972.255 149.938 971.789C150.694 970.825 151.766 969.526 153.041 968.026C155.605 965.009 159.129 961.006 162.885 956.867C166.639 952.729 170.664 948.416 174.23 944.793C177.667 941.302 181.009 938.108 183.3 936.475L183.335 936.406C183.493 936.179 183.97 935.44 184.331 933.837C184.652 932.405 184.752 930.803 184.614 929.327C184.125 929.021 183.484 928.65 182.707 928.259C180.685 927.244 178.443 926.347 177.471 926.005C175.563 925.374 171.719 924.221 167.952 923.091C164.333 922.006 160.635 920.902 159.346 920.45L159.307 920.435C148.519 916.559 127.717 904.769 116.718 897.351L116.711 897.347C106.226 890.261 90.8363 877.527 81.4258 868.571L81.4181 868.564C73.495 860.992 62.6944 849.092 52.6947 836.825C42.7462 824.619 33.2775 811.668 28.2382 802.031L28.2267 802.008C23.197 792.288 17.0256 777.342 11.8292 762.762C6.66621 748.275 2.25473 733.566 0.977974 724.431L0.974143 724.415C-0.217234 715.673 -0.209132 700.972 0.42641 685.238C1.06746 669.369 2.36888 652.003 3.89666 637.697L3.90049 637.647L3.90815 637.601C9.67203 591.311 31.1591 425.223 41.8549 358.198L41.8703 358.09C43.8609 347.008 47.1025 329.685 50.4272 313.887C52.0887 305.992 53.7807 298.428 55.3568 292.201C56.8879 286.151 58.4265 280.862 59.8459 277.853L59.8612 277.818L59.8803 277.788C63.7747 269.809 73.2508 257.478 82.3297 247.837L82.3566 247.81C91.4757 238.26 107.598 226.888 118.664 221.189L118.695 221.17C128.232 216.336 147.526 208.971 164.582 202.32C173.217 198.953 181.35 195.746 187.632 193.052C190.778 191.704 193.381 190.516 195.316 189.53C196.283 189.038 197.022 188.627 197.545 188.302C197.577 188.281 197.608 188.255 197.637 188.236C197.434 188.123 197.204 187.997 196.948 187.861C195.56 187.13 193.716 186.272 191.704 185.388C187.698 183.63 183.363 181.922 181.446 181.193L181.435 181.189C178.396 180.024 175.275 178.416 173.345 176.365C172.508 175.476 170.673 173.202 171.235 170.053C171.852 166.604 174.713 165.179 176.122 164.678L176.168 164.663L176.21 164.648C177.249 164.299 180.816 163.281 185.395 161.945C190.109 160.57 196.187 158.777 202.571 156.788C215.536 152.751 229.069 148.115 235.423 144.657C236.632 143.976 238.525 142.472 240.927 140.19C243.248 137.985 245.76 135.335 248.17 132.667C252.829 127.51 256.922 122.48 258.271 120.831C260.318 118.001 263.254 112.437 266.261 106.169C269.228 99.9855 272.058 93.5742 273.849 89.4823C274.77 87.3784 276.839 86.1303 279 86.1518ZM120.897 362.42C117.877 361.879 114.987 363.888 114.443 366.907C107.53 405.36 91.7801 495.065 84.2372 544.271L84.2257 544.344L84.2181 544.417C81.1277 568.832 75.5259 616.569 73.5162 638.692L73.5086 638.792C72.0397 659.11 70.1397 704.222 72.7655 727.03L72.7693 727.065C74.052 737.625 78.7246 758.163 81.962 768.355L81.9774 768.397C84.937 777.459 92.268 791.964 100.409 805.924C108.568 819.916 117.938 834.043 125.221 842.268L125.252 842.299C132.189 850.014 145.832 861.146 159.966 871.393C174.141 881.669 189.434 891.505 199.885 896.49L199.924 896.509C211.526 901.941 227.84 906.048 242.651 909.008C256.784 911.832 269.987 913.686 277.288 914.643C277.694 914.757 278.116 914.824 278.548 914.842H279.422C279.853 914.824 280.274 914.756 280.678 914.643C287.978 913.686 301.182 911.833 315.323 909.008C330.138 906.048 346.457 901.94 358.073 896.509L358.111 896.49C368.564 891.505 383.85 881.666 398.019 871.389C412.147 861.141 425.782 850.013 432.718 842.299L432.741 842.272C440.042 834.046 449.42 819.918 457.581 805.924C465.722 791.963 473.051 777.457 475.997 768.389L476.004 768.37C479.275 758.17 483.947 737.621 485.201 727.049L485.205 727.03C487.83 704.224 485.931 659.114 484.492 638.803L484.488 638.746L484.481 638.692L483.573 629.29C481.112 604.998 476.483 565.777 473.752 544.409L473.744 544.34L473.733 544.271L472.228 534.594C464.35 484.621 450.351 404.777 443.745 368.135C443.717 367.665 443.635 367.212 443.496 366.78C442.894 363.831 440.048 361.887 437.069 362.424C436.538 362.52 436.039 362.693 435.579 362.922H122.399C121.936 362.691 121.432 362.516 120.897 362.42Z" fill="#00A5E6"/>
<path d="M336.226 56.84C336.226 88.2319 310.764 113.68 279.354 113.68C247.944 113.68 222.482 88.2319 222.482 56.84C222.482 25.4481 247.944 0 279.354 0C310.764 0 336.226 25.4481 336.226 56.84Z" fill="#00A5E6"/>
</svg>
